<svg width="100" height="100" viewBox="0 0 24 24" fill="none" xmlns="http://www.w3.org/2000/svg">
<path d="M12 2C6.48 2 2 6.48 2 12s4.48 10 10 10 10-4.48 10-10S17.52 2 12 2zm-1.5 14.5V18c0 .83-.67 1.5-1.5 1.5S7.5 18.83 7.5 18v-1.5c0-.83.67-1.5 1.5-1.5s1.5.67 1.5 1.5zm3-2.5V18c0 .83-.67 1.5-1.5 1.5S10.5 18.83 10.5 18v-1.5c0-.83.67-1.5 1.5-1.5s1.5.67 1.5 1.5zm3 2.5V18c0 .83-.67 1.5-1.5 1.5S13.5 18.83 13.5 18v-1.5c0-.83.67-1.5 1.5-1.5s1.5.67 1.5 1.5zM12 4c.83 0 1.5.67 1.5 1.5S12.83 7 12 7s-1.5-.67-1.5-1.5S11.17 4 12 4zm0 3c2.48 0 4.5 2.02 4.5 4.5S14.48 16 12 16s-4.5-2.02-4.5-4.5S9.52 7 12 7zm0 1.5c-1.66 0-3 1.34-3 3s1.34 3 3 3 3-1.34 3-3-1.34-3-3-3z" fill="black"/>
</svg>
